# xmcd
#
# Track frame offsets:
#	183
#	17568
#	32913
#	54658
#
# Disc length: 1001 seconds
#
# Revision: 0
# Processed by: cddbd v1.5PL3 Copyright (c) Steve Scherf et al.
# Submitted via: dBpowerAMP V4.0
#
DISCID=2b03e704
DTITLE=Garth Brooks - Standing Outside The Fire
DYEAR=1193
DGENRE=Country
TTITLE0=Standing Outside The Fire
TTITLE1=Unanswered Prayers
TTITLE2=In Lonesome Dove
TTITLE3=Ain't Going Down (Til The Sun Comes Up)
EXTD=
EXTT0=
EXTT1=
EXTT2=
EXTT3=
PLAYORDER=
